<svg xmlns="http://www.w3.org/2000/svg" viewBox="0 0 64 64" role="img" aria-label="WhatsApp">
  <circle cx="32" cy="32" r="30" fill="#25D366"/>
  <path fill="#fff" d="M46.8 17.1A20.8 20.8 0 0 0 14.1 42.2L11 53l11.1-2.9a20.8 20.8 0 0 0 24.7-33Zm-14.7 30a17.2 17.2 0 0 1-8.8-2.4l-.6-.4-6.6 1.8 1.8-6.4-.4-.7a17.3 17.3 0 1 1 14.6 8.1Z"/>
  <path fill="#fff" d="M41.6 35.4c-.5-.3-3-1.5-3.5-1.6-.5-.2-.8-.3-1.2.3-.4.5-1.4 1.6-1.7 2-.3.4-.6.4-1.1.1-3-1.5-5-2.7-7-6.1-.5-.9.5-.8 1.5-2.7.2-.4.1-.8-.1-1.1-.1-.3-1.2-2.8-1.6-3.9-.4-1-.9-.9-1.2-.9h-1c-.4 0-.9.1-1.4.7-.5.5-1.8 1.8-1.8 4.4s1.9 5.1 2.2 5.5c.3.4 3.7 5.7 9 8 3.3 1.4 4.6 1.5 6.3 1.3 1-.2 3-1.2 3.4-2.4.4-1.2.4-2.2.3-2.4-.2-.5-.6-.7-1.1-.9Z"/>
</svg>
